<?xml version="1.0" encoding="UTF-8"?>
<svg width="272px" height="56px" viewBox="0 0 272 56" version="1.1" xmlns="http://www.w3.org/2000/svg" xmlns:xlink="http://www.w3.org/1999/xlink">
    <!-- Generator: Sketch 52 (66869) - http://www.bohemiancoding.com/sketch -->
    <title>FB_button</title>
    <desc>Created with Sketch.</desc>
    <defs>
        <rect id="path-1" x="0" y="0" width="28" height="28" rx="2"></rect>
    </defs>
    <g id="Page-1" stroke="none" stroke-width="1" fill="none" fill-rule="evenodd">
        <g id="MOB-space-02" transform="translate(-504.000000, -344.000000)">
            <g id="FB_button" transform="translate(504.000000, 344.000000)">
                <rect id="button-bg" fill="#4267B2" x="0" y="0" width="272" height="56" rx="4"></rect>
                <g id="FB_icon" transform="translate(22.000000, 14.000000)">
                    <mask id="mask-2" fill="white">
                        <use xlink:href="#path-1"></use>
                    </mask>
                    <use id="Rectangle-3" fill="#FFFFFF" xlink:href="#path-1"></use>
                    <path d="M19.1324157,31.210941 L19.1324157,18.1039359 L22.7505223,18.1039359 L23.2299995,13.5871894 L19.1324157,13.5871894 L19.1385628,11.3265143 C19.1385628,10.1484772 19.2504921,9.51725805 20.9424935,9.51725805 L23.2043864,9.51725805 L23.2043864,5 L19.5857675,5 C15.2392243,5 13.7093538,7.19110801 13.7093538,10.8758627 L13.7093538,13.5877009 L11,13.5877009 L11,18.1044474 L13.7093538,18.1044474 L13.7093538,31.210941 L19.1324157,31.210941 Z" id="Shape" fill="#4267B2" mask="url(#mask-2)"></path>
                </g>
                <path d="M62.3,25.8 C62.3,24 64,22.3 66.5,22.3 C68.9,22.3 70.6,24 70.6,26.2 L68.7,26.2 C68.7,24.9 67.8,24 66.5,24 C65.1,24 64.2,24.9 64.2,25.8 C64.2,28.4 70.9,27 70.9,31.6 C70.9,33.4 69.2,35.1 66.5,35.1 C63.8,35.1 62.2,33.5 62.2,31.2 L64.1,31.2 C64.1,32.6 64.9,33.4 66.5,33.4 C68.2,33.4 69,32.6 69,31.6 C69,28.8 62.3,30.2 62.3,25.8 Z M74.5,26 L74.5,35 L72.7,35 L72.7,26 L74.5,26 Z M73.6,24.6 C73,24.6 72.5,24.1 72.5,23.5 C72.5,22.9 73,22.4 73.6,22.4 C74.2,22.4 74.7,22.9 74.7,23.5 C74.7,24.1 74.2,24.6 73.6,24.6 Z M83.5,26 L84.8,26 L84.8,34.6 C84.8,36.8 83.2,38.4 80.7,38.4 C78.5,38.4 77.2,37.1 76.8,35.6 L78.6,35.6 C78.9,36.2 79.5,36.8 80.7,36.8 C82.1,36.8 83,35.9 83,34.6 L83,33.7 C83,33.7 82.2,34.7 80.5,34.7 C78.3,34.7 76.4,32.8 76.4,30.3 C76.4,27.8 78.3,25.9 80.5,25.9 C82.3,25.9 83.1,26.9 83.1,26.9 L83.5,26 Z M80.72,33 C82,33 83.2,31.8 83.2,30.3 C83.2,28.8 82,27.6 80.7,27.6 C79.4,27.6 78.2,28.8 78.2,30.3 C78.2,31.8 79.4,33 80.72,33 Z M91.5,25.9 C93.5,25.9 95.1,27.5 95.1,29.8 L95.1,35 L93.3,35 L93.3,29.8 C93.3,28.6 92.3,27.6 91.2,27.6 C90,27.6 89,28.6 89,29.8 L89,35 L87.2,35 L87.2,26 L88.5,26 L88.9,26.9 C88.9,26.9 89.7,25.9 91.5,25.9 Z M105.4,35.1 C103.4,35.1 101.8,33.5 101.8,31.2 L101.8,26 L103.6,26 L103.6,31.2 C103.6,32.4 104.6,33.4 105.7,33.4 C106.9,33.4 107.9,32.4 107.9,31.2 L107.9,26 L109.7,26 L109.7,35 L108.4,35 L108,34.1 C108,34.1 107.2,35.1 105.4,35.1 Z M116.4,25.9 C118.8,25.9 120.7,27.8 120.7,30.5 C120.7,33.2 118.8,35.1 116.4,35.1 C114.7,35.1 113.9,34.1 113.9,34.1 L113.9,38.2 L112.1,38.2 L112.1,26 L113.4,26 L113.8,26.9 C113.8,26.9 114.6,25.9 116.4,25.9 Z M116.3,33.4 C117.7,33.4 118.9,32.2 118.9,30.5 C118.9,28.8 117.7,27.6 116.3,27.6 C114.9,27.6 113.7,28.8 113.7,30.5 C113.7,32.2 114.9,33.4 116.3,33.4 Z M134.3,35 L132.4,29.1 L130.5,35 L129,35 L126,26 L127.8,26 L129.8,32.2 L131.8,26 L133,26 L135,32.2 L137,26 L138.8,26 L135.8,35 L134.3,35 Z M142,26 L142,35 L140.2,35 L140.2,26 L142,26 Z M141.1,24.6 C140.5,24.6 140,24.1 140,23.5 C140,22.9 140.5,22.4 141.1,22.4 C141.7,22.4 142.2,22.9 142.2,23.5 C142.2,24.1 141.7,24.6 141.1,24.6 Z M147,27.7 L147,32 C147,32.8 147.6,33.4 148.4,33.4 C148.7,33.4 149,33.3 149,33.3 L149,34.9 C149,34.9 148.6,35.1 148,35.1 C146.4,35.1 145.2,33.9 145.2,32 L145.2,27.7 L143.6,27.7 L143.6,26 L144.3,26 C145,26 145.5,25.5 145.5,24.8 L145.5,23.6 L147,23.6 L147,26 L149,26 L149,27.7 L147,27.7 Z M155.5,25.9 C157.5,25.9 159.1,27.5 159.1,29.8 L159.1,35 L157.3,35 L157.3,29.8 C157.3,28.6 156.3,27.6 155.2,27.6 C154,27.6 153,28.6 153,29.8 L153,35 L151.2,35 L151.2,22.4 L153,22.4 L153,26.9 C153,26.9 153.9,25.9 155.5,25.9 Z M174.1,24.2 L168,24.2 L168,27.8 L173,27.8 L173,29.6 L168,29.6 L168,35 L166.1,35 L166.1,22.4 L174.1,22.4 L174.1,24.2 Z M179.4,25.9 C181.5,25.9 182.9,27.3 182.9,29.1 L182.9,35 L181.6,35 L181.2,34.1 C181.2,34.1 180.4,35.1 178.6,35.1 C176.6,35.1 175.5,34 175.5,32.4 C175.5,30.6 176.7,29.4 181.1,29.4 L181.1,29.1 C181.1,28.2 180.5,27.6 179.4,27.6 C178.2,27.6 177.7,28.1 177.6,28.7 L175.8,28.7 C175.9,27.1 177.2,25.9 179.4,25.9 Z M178.7,33.5 C180.2,33.5 181.1,32.6 181.1,31.48 L181.1,31 C177.9,31 177.3,31.6 177.3,32.5 C177.3,33 177.8,33.5 178.7,33.5 Z M191.1,31.7 L193,31.7 C192.6,33.6 191.1,35.1 189,35.1 C186.6,35.1 184.7,33.2 184.7,30.5 C184.7,27.8 186.6,25.9 189,25.9 C191.1,25.9 192.6,27.4 193,29.3 L191.1,29.3 C190.8,28.3 190.1,27.6 189,27.6 C187.7,27.6 186.5,28.8 186.5,30.5 C186.5,32.2 187.7,33.4 189,33.4 C190.1,33.4 190.8,32.7 191.1,31.7 Z M200.7,32.4 L202.6,32.4 C202,33.9 200.8,35.1 198.7,35.1 C196.3,35.1 194.4,33.2 194.4,30.5 C194.4,27.8 196.3,25.9 198.6,25.9 C200.9,25.9 202.8,27.8 202.8,30.5 C202.8,30.9 202.7,31.3 202.7,31.3 L196.3,31.3 C196.4,32.4 197.4,33.4 198.7,33.4 C199.8,33.4 200.4,32.8 200.7,32.4 Z M198.6,27.6 C197.4,27.6 196.5,28.5 196.3,29.8 L201.1,29.8 C200.9,28.5 200,27.6 198.6,27.6 Z M209.1,35.1 C207.3,35.1 206.5,34.1 206.5,34.1 L206.1,35 L204.8,35 L204.8,22.4 L206.6,22.4 L206.6,26.9 C206.6,26.9 207.4,25.9 209.1,25.9 C211.5,25.9 213.4,27.8 213.4,30.5 C213.4,33.2 211.5,35.1 209.1,35.1 Z M209,27.6 C207.6,27.6 206.4,28.8 206.4,30.5 C206.4,32.2 207.6,33.4 209,33.4 C210.4,33.4 211.6,32.2 211.6,30.5 C211.6,28.8 210.4,27.6 209,27.6 Z M221.6,30.5 C221.6,28.8 220.4,27.6 219.1,27.6 C217.8,27.6 216.6,28.8 216.6,30.5 C216.6,32.2 217.8,33.4 219.1,33.4 C220.4,33.4 221.6,32.2 221.6,30.5 Z M223.4,30.5 C223.4,33.2 221.5,35.1 219.1,35.1 C216.7,35.1 214.8,33.2 214.8,30.5 C214.8,27.8 216.7,25.9 219.1,25.9 C221.5,25.9 223.4,27.8 223.4,30.5 Z M231.6,30.5 C231.6,28.8 230.4,27.6 229.1,27.6 C227.8,27.6 226.6,28.8 226.6,30.5 C226.6,32.2 227.8,33.4 229.1,33.4 C230.4,33.4 231.6,32.2 231.6,30.5 Z M233.4,30.5 C233.4,33.2 231.5,35.1 229.1,35.1 C226.7,35.1 224.8,33.2 224.8,30.5 C224.8,27.8 226.7,25.9 229.1,25.9 C231.5,25.9 233.4,27.8 233.4,30.5 Z M242.9,35 L240.7,35 L237.2,30.7 L237.2,35 L235.4,35 L235.4,22.4 L237.2,22.4 L237.2,29.9 L240.3,26 L242.4,26 L238.9,30.2 L242.9,35 Z" id="Sign-up-with-Faceboo" fill="#FFFFFF"></path>
            </g>
        </g>
    </g>
</svg>