<?xml version="1.0" encoding="UTF-8"?>
<svg width="274px" height="58px" viewBox="0 0 274 58" version="1.1" xmlns="http://www.w3.org/2000/svg" xmlns:xlink="http://www.w3.org/1999/xlink">
    <!-- Generator: Sketch 52 (66869) - http://www.bohemiancoding.com/sketch -->
    <title>Google_button</title>
    <desc>Created with Sketch.</desc>
    <g id="Page-1" stroke="none" stroke-width="1" fill="none" fill-rule="evenodd">
        <g id="MOB-space-02" transform="translate(-503.000000, -409.000000)">
            <g id="Google_button" transform="translate(504.000000, 410.000000)">
                <rect id="button-bg" stroke="#B8B8B8" fill="#FFFFFF" x="0" y="0" width="272" height="56" rx="4"></rect>
                <g id="super-g" fill="#000000" transform="translate(22.000000, 14.000000)">
                    <path d="M14,5.41333333 C16.6288889,5.41333333 18.4022222,6.54888889 19.4133333,7.49777778 L23.3644444,3.64 C20.9377778,1.38444444 17.78,0 14,0 C8.52444444,0 3.79555556,3.14222222 1.49333333,7.71555556 L6.02,11.2311111 C7.15555556,7.85555556 10.2977778,5.41333333 14,5.41333333 L14,5.41333333 Z" id="Shape" fill="#EA4335"></path>
                    <path d="M27.44,14.3111111 C27.44,13.16 27.3466667,12.32 27.1444444,11.4488889 L14,11.4488889 L14,16.6444444 L21.7155556,16.6444444 C21.56,17.9355556 20.72,19.88 18.8533333,21.1866667 L23.2711111,24.6088889 C25.9155556,22.1666667 27.44,18.5733333 27.44,14.3111111 L27.44,14.3111111 Z" id="Shape" fill="#4285F4"></path>
                    <path d="M6.03555556,16.7688889 C5.74,15.8977778 5.56888889,14.9644444 5.56888889,14 C5.56888889,13.0355556 5.74,12.1022222 6.02,11.2311111 L1.49333333,7.71555556 C0.544444444,9.61333333 0,11.7444444 0,14 C0,16.2555556 0.544444444,18.3866667 1.49333333,20.2844444 L6.03555556,16.7688889 L6.03555556,16.7688889 Z" id="Shape" fill="#FBBC05"></path>
                    <path d="M14,28 C17.78,28 20.9533333,26.7555556 23.2711111,24.6088889 L18.8533333,21.1866667 C17.6711111,22.0111111 16.0844444,22.5866667 14,22.5866667 C10.2977778,22.5866667 7.15555556,20.1444444 6.03555556,16.7688889 L1.50888889,20.2844444 C3.81111111,24.8577778 8.52444444,28 14,28 L14,28 Z" id="Shape" fill="#34A853"></path>
                    <polygon id="Shape" fill="none" points="0 0 28 0 28 28 0 28"></polygon>
                </g>
                <path d="M62.3,25.8 C62.3,24 64,22.3 66.5,22.3 C68.9,22.3 70.6,24 70.6,26.2 L68.7,26.2 C68.7,24.9 67.8,24 66.5,24 C65.1,24 64.2,24.9 64.2,25.8 C64.2,28.4 70.9,27 70.9,31.6 C70.9,33.4 69.2,35.1 66.5,35.1 C63.8,35.1 62.2,33.5 62.2,31.2 L64.1,31.2 C64.1,32.6 64.9,33.4 66.5,33.4 C68.2,33.4 69,32.6 69,31.6 C69,28.8 62.3,30.2 62.3,25.8 Z M74.5,26 L74.5,35 L72.7,35 L72.7,26 L74.5,26 Z M73.6,24.6 C73,24.6 72.5,24.1 72.5,23.5 C72.5,22.9 73,22.4 73.6,22.4 C74.2,22.4 74.7,22.9 74.7,23.5 C74.7,24.1 74.2,24.6 73.6,24.6 Z M83.5,26 L84.8,26 L84.8,34.6 C84.8,36.8 83.2,38.4 80.7,38.4 C78.5,38.4 77.2,37.1 76.8,35.6 L78.6,35.6 C78.9,36.2 79.5,36.8 80.7,36.8 C82.1,36.8 83,35.9 83,34.6 L83,33.7 C83,33.7 82.2,34.7 80.5,34.7 C78.3,34.7 76.4,32.8 76.4,30.3 C76.4,27.8 78.3,25.9 80.5,25.9 C82.3,25.9 83.1,26.9 83.1,26.9 L83.5,26 Z M80.72,33 C82,33 83.2,31.8 83.2,30.3 C83.2,28.8 82,27.6 80.7,27.6 C79.4,27.6 78.2,28.8 78.2,30.3 C78.2,31.8 79.4,33 80.72,33 Z M91.5,25.9 C93.5,25.9 95.1,27.5 95.1,29.8 L95.1,35 L93.3,35 L93.3,29.8 C93.3,28.6 92.3,27.6 91.2,27.6 C90,27.6 89,28.6 89,29.8 L89,35 L87.2,35 L87.2,26 L88.5,26 L88.9,26.9 C88.9,26.9 89.7,25.9 91.5,25.9 Z M105.4,35.1 C103.4,35.1 101.8,33.5 101.8,31.2 L101.8,26 L103.6,26 L103.6,31.2 C103.6,32.4 104.6,33.4 105.7,33.4 C106.9,33.4 107.9,32.4 107.9,31.2 L107.9,26 L109.7,26 L109.7,35 L108.4,35 L108,34.1 C108,34.1 107.2,35.1 105.4,35.1 Z M116.4,25.9 C118.8,25.9 120.7,27.8 120.7,30.5 C120.7,33.2 118.8,35.1 116.4,35.1 C114.7,35.1 113.9,34.1 113.9,34.1 L113.9,38.2 L112.1,38.2 L112.1,26 L113.4,26 L113.8,26.9 C113.8,26.9 114.6,25.9 116.4,25.9 Z M116.3,33.4 C117.7,33.4 118.9,32.2 118.9,30.5 C118.9,28.8 117.7,27.6 116.3,27.6 C114.9,27.6 113.7,28.8 113.7,30.5 C113.7,32.2 114.9,33.4 116.3,33.4 Z M134.3,35 L132.4,29.1 L130.5,35 L129,35 L126,26 L127.8,26 L129.8,32.2 L131.8,26 L133,26 L135,32.2 L137,26 L138.8,26 L135.8,35 L134.3,35 Z M142,26 L142,35 L140.2,35 L140.2,26 L142,26 Z M141.1,24.6 C140.5,24.6 140,24.1 140,23.5 C140,22.9 140.5,22.4 141.1,22.4 C141.7,22.4 142.2,22.9 142.2,23.5 C142.2,24.1 141.7,24.6 141.1,24.6 Z M147,27.7 L147,32 C147,32.8 147.6,33.4 148.4,33.4 C148.7,33.4 149,33.3 149,33.3 L149,34.9 C149,34.9 148.6,35.1 148,35.1 C146.4,35.1 145.2,33.9 145.2,32 L145.2,27.7 L143.6,27.7 L143.6,26 L144.3,26 C145,26 145.5,25.5 145.5,24.8 L145.5,23.6 L147,23.6 L147,26 L149,26 L149,27.7 L147,27.7 Z M155.5,25.9 C157.5,25.9 159.1,27.5 159.1,29.8 L159.1,35 L157.3,35 L157.3,29.8 C157.3,28.6 156.3,27.6 155.2,27.6 C154,27.6 153,28.6 153,29.8 L153,35 L151.2,35 L151.2,22.4 L153,22.4 L153,26.9 C153,26.9 153.9,25.9 155.5,25.9 Z M171.3,35.1 C168.1,35.1 165.3,32.3 165.3,28.7 C165.3,25.1 168.1,22.3 171.3,22.3 C174.1,22.3 176.1,24.3 176.7,26.5 L174.7,26.5 C174.3,25.2 173.1,24 171.3,24 C169.2,24 167.2,26 167.2,28.7 C167.2,31.4 169.2,33.4 171.3,33.4 C173.3,33.4 174.7,32 175,30.3 L171.2,30.3 L171.2,28.5 L176.8,28.5 L176.8,35 L175.4,35 L174.9,33.8 C174.9,33.8 173.6,35.1 171.3,35.1 Z M185.5,30.5 C185.5,28.8 184.3,27.6 183,27.6 C181.7,27.6 180.5,28.8 180.5,30.5 C180.5,32.2 181.7,33.4 183,33.4 C184.3,33.4 185.5,32.2 185.5,30.5 Z M187.3,30.5 C187.3,33.2 185.4,35.1 183,35.1 C180.6,35.1 178.7,33.2 178.7,30.5 C178.7,27.8 180.6,25.9 183,25.9 C185.4,25.9 187.3,27.8 187.3,30.5 Z M195.5,30.5 C195.5,28.8 194.3,27.6 193,27.6 C191.7,27.6 190.5,28.8 190.5,30.5 C190.5,32.2 191.7,33.4 193,33.4 C194.3,33.4 195.5,32.2 195.5,30.5 Z M197.3,30.5 C197.3,33.2 195.4,35.1 193,35.1 C190.6,35.1 188.7,33.2 188.7,30.5 C188.7,27.8 190.6,25.9 193,25.9 C195.4,25.9 197.3,27.8 197.3,30.5 Z M205.8,26 L207.1,26 L207.1,34.6 C207.1,36.8 205.5,38.4 203,38.4 C200.8,38.4 199.5,37.1 199.1,35.6 L200.9,35.6 C201.2,36.2 201.8,36.8 203,36.8 C204.4,36.8 205.3,35.9 205.3,34.6 L205.3,33.7 C205.3,33.7 204.5,34.7 202.8,34.7 C200.6,34.7 198.7,32.8 198.7,30.3 C198.7,27.8 200.6,25.9 202.8,25.9 C204.6,25.9 205.4,26.9 205.4,26.9 L205.8,26 Z M203.02,33 C204.3,33 205.5,31.8 205.5,30.3 C205.5,28.8 204.3,27.6 203,27.6 C201.7,27.6 200.5,28.8 200.5,30.3 C200.5,31.8 201.7,33 203.02,33 Z M211.4,22.4 L211.4,35 L209.6,35 L209.6,22.4 L211.4,22.4 Z M219.8,32.4 L221.7,32.4 C221.1,33.9 219.9,35.1 217.8,35.1 C215.4,35.1 213.5,33.2 213.5,30.5 C213.5,27.8 215.4,25.9 217.7,25.9 C220,25.9 221.9,27.8 221.9,30.5 C221.9,30.9 221.8,31.3 221.8,31.3 L215.4,31.3 C215.5,32.4 216.5,33.4 217.8,33.4 C218.9,33.4 219.5,32.8 219.8,32.4 Z M217.7,27.6 C216.5,27.6 215.6,28.5 215.4,29.8 L220.2,29.8 C220,28.5 219.1,27.6 217.7,27.6 Z" id="Sign-up-with-Google" fill="#7D7D7D"></path>
            </g>
        </g>
    </g>
</svg>