<?xml version="1.0" encoding="UTF-8" standalone="no"?>
<svg width="29px" height="31px" viewBox="0 0 29 31" version="1.1" xmlns="http://www.w3.org/2000/svg" xmlns:xlink="http://www.w3.org/1999/xlink">
    <!-- Generator: sketchtool 50.2 (55047) - http://www.bohemiancoding.com/sketch -->
    <title>5C6E785E-89EA-4089-BB51-D95C6636082A</title>
    <desc>Created with sketchtool.</desc>
    <defs></defs>
    <g id="web-UI---REV02" class="image" stroke="none" stroke-width="1" fill="none" fill-rule="evenodd" opacity="0.285673254">
        <g id="OSiP-01" transform="translate(-65.000000, -65.000000)" fill="#FFFFFF">
            <g id="Jolocom_icon_white" transform="translate(65.000000, 65.000000)">
                <path d="M21.6092023,17.8761741 C21.1951888,17.0629115 20.8698889,16.2085256 20.638781,15.3274051 C21.499408,15.1549925 22.3475004,14.9264129 23.1774724,14.6431718 C23.4864077,15.836494 24.0094902,16.9655063 24.7219151,17.9766708 C24.4403197,17.9381827 24.1565581,17.9061093 23.8706304,17.8825887 C23.1185711,17.8276563 22.3634277,17.8276563 21.6113684,17.8825887 M15.2559755,13.2982258 C15.0177024,13.2789817 14.7794293,13.2533229 14.5433224,13.225526 C14.6516283,12.9390033 14.7599343,12.6503424 14.8530774,12.357405 C15.0422518,11.7872106 15.2039886,11.2048996 15.338288,10.6104719 L15.5354048,10.629716 C16.459598,10.7002325 17.3883821,10.6873497 18.3102032,10.5912278 C18.2972065,10.7109687 18.2863759,10.8285713 18.2755453,10.9483121 C18.2140781,11.7233034 18.2140781,12.5018521 18.2755453,13.2768435 C17.2671727,13.3696327 16.2525912,13.3767864 15.2429788,13.2982258 M15.7585151,7.78587138 C15.8061697,7.17219965 15.8256648,6.56494261 15.8170003,5.96196204 L15.8971467,5.96196204 C17.2045723,6.07054537 18.5209989,5.93341465 19.7766657,5.55783675 C19.4620895,6.18813917 19.1935293,6.83981939 18.9730356,7.50790161 C18.871228,7.82008304 18.7780849,8.13654093 18.6979385,8.45727528 C17.7069976,8.6014252 16.7025852,8.63299186 15.7043621,8.55135736 C15.7346878,8.29476988 15.7628473,8.0381824 15.7823424,7.78159492 M22.8937108,11.3011199 C22.8698835,11.6111631 22.861219,11.919068 22.8633851,12.226973 C22.0180005,12.5434106 21.1489226,12.7943429 20.2640424,12.9774914 C20.218036,12.3518133 20.218036,11.7236662 20.2640424,11.0979881 C20.2878697,10.8093272 20.3203615,10.5206663 20.3636839,10.2426965 C21.3695852,9.99279537 22.346638,9.64097061 23.27928,9.19282606 C23.0752519,9.87899457 22.9431477,10.5840319 22.8850463,11.2968434 M28.8592023,19.6851158 C28.9046908,19.5226104 28.945847,19.360105 28.9870033,19.1954613 L29,19.1484203 C27.036293,17.9763558 25.644503,16.061592 25.1486406,13.8498888 C26.4855911,13.2282424 27.7482734,12.461598 28.9133552,11.564122 C28.7008994,10.7435504 28.4197821,9.9418108 28.0729011,9.16716731 C27.1283666,9.96883004 26.1001823,10.669114 25.0056767,11.2562171 C25.1678266,9.67236154 25.7949473,8.16970674 26.8100538,6.932718 L26.7862265,6.89850634 C26.632432,6.67399229 26.4721392,6.45375471 26.3096803,6.23779358 C26.1472214,6.02183245 25.9652674,5.7823508 25.7768151,5.55783675 C25.6858381,5.44878707 25.5948611,5.34401385 25.4995518,5.2371024 L25.4778906,5.26276115 C24.163215,6.44264857 22.6171974,7.3436149 20.9355393,7.90988866 C21.5043337,6.26173891 22.4055168,4.74443427 23.5847027,3.44954295 L23.5998656,3.43671358 C23.4713425,3.33407859 23.3406533,3.23358182 23.207798,3.13522329 L22.9911861,2.98340903 L22.787571,2.83800946 L22.6727667,2.76103321 C22.4409919,2.60280427 22.204885,2.45099001 21.9644458,2.30345221 L21.9124589,2.27137877 C20.2541878,3.55700438 18.1656318,4.17779454 16.0639379,4.00975895 C15.9426352,4.00975895 15.8213325,3.98623843 15.702196,3.97127083 C15.5460172,2.63251992 15.2498462,1.31332747 14.8184195,0.0347912331 C13.9465148,-0.0230528214 13.0712349,-0.0087480166 12.2017478,0.0775558132 C12.5950672,1.09063368 12.8909631,2.13799121 13.0855244,3.20578485 C11.7836026,2.58507109 10.6648536,1.6449058 9.83634598,0.475266408 C9.17280611,0.646135579 8.52152959,0.860432578 7.88683896,1.11673511 C9.14609701,3.13291287 11.0708263,4.65906299 13.3367941,5.43809593 C13.3713265,6.15722243 13.3604749,6.87777357 13.3043024,7.59556899 C13.2898616,7.77518023 13.2725326,7.95407872 13.2523155,8.13226448 C10.0116919,7.23899117 7.24586357,5.14459923 5.5322677,2.28634638 C4.93302658,2.64866147 4.35849489,3.04936971 3.81236929,3.48589285 C5.84612504,6.79760962 9.10204269,9.20139963 12.8949059,10.191379 C12.7822677,10.6689168 12.6501344,11.1393272 12.4985061,11.6026102 C12.368539,11.9946188 12.2241311,12.3795 12.0652823,12.7572538 C8.64329617,11.8545987 5.58099035,9.94451039 3.28600239,7.28124933 C2.76949257,6.67119782 2.29409128,6.02834816 1.86286226,5.35684323 C1.3010784,5.99493478 0.793910082,6.67794842 0.346579026,7.39885193 C0.69749029,7.88636814 1.06789662,8.36105498 1.4664625,8.82077421 C3.97186497,11.7301654 7.28498475,13.852249 10.9973857,14.925418 C8.6089639,18.9992625 4.63486353,21.9300642 0,23.0357206 C0.429029362,23.7876868 0.921008403,24.5029218 1.47079474,25.1739496 C6.65208726,23.6894134 11.0003647,20.1912192 13.5187481,15.4813576 C14.0299522,15.5597593 14.5469326,15.6196297 15.0696893,15.6609688 C16.265604,15.7537203 17.4675215,15.7408398 18.6611144,15.6224807 C18.8764058,16.4924543 19.171494,17.3412714 19.5427248,18.1584203 C14.2508092,19.2551675 9.95980664,23.0666114 8.29840155,28.146088 C8.11208105,28.7168828 7.96018655,29.2980741 7.84351658,29.8866064 C8.50377233,30.1457188 9.18117596,30.3600399 9.87100388,30.5280751 C9.97511228,29.9402486 10.1198585,29.3601455 10.3042277,28.7918331 C11.8003653,24.2076062 15.7775719,20.8410484 20.5954586,20.0806882 C21.1625148,20.956675 21.8202116,21.7721519 22.5579624,22.5139928 C17.5616221,22.5329637 13.3035066,26.0973681 12.4681805,30.9599973 L12.5006722,30.9599973 C13.1639325,31.0068357 13.8295165,31.0125488 14.4935016,30.9771032 C14.547941,30.7137162 14.6159003,30.4532293 14.6971168,30.1966496 C15.4250228,27.9767008 17.0687876,26.1634151 19.2233345,25.2036445 C21.3778814,24.243874 23.8428367,24.2268776 26.0107559,25.1568438 L26.0367493,25.1226321 C26.2013744,24.9088092 26.359501,24.7078157 26.5132955,24.4939928 L26.6259337,24.3400403 L26.6822528,24.2587876 C26.8490439,24.0171678 27.0115028,23.7734096 27.1652973,23.5210986 L27.1652973,23.506131 C25.4957429,22.6267485 24.0380048,21.4022027 22.8915447,19.9160445 C23.1579773,19.9160445 23.4244099,19.9310121 23.6930087,19.9523944 C25.3026645,20.0772571 26.874658,20.4971006 28.3285031,21.190429 C28.3934867,21.0300618 28.4584703,20.8675564 28.5191216,20.7029128 C28.5797729,20.5382692 28.6187631,20.4377724 28.6642516,20.3009257 C28.6967434,20.200429 28.727069,20.0871028 28.7573947,19.995159 C28.7877203,19.9032151 28.8115477,19.8219624 28.835375,19.7342951 L28.8483717,19.687254" id="Shape"></path>
            </g>
        </g>
    </g>
</svg>
