<?xml version="1.0" standalone="no"?>
<!DOCTYPE svg PUBLIC "-//W3C//DTD SVG 20010904//EN"
 "http://www.w3.org/TR/2001/REC-SVG-20010904/DTD/svg10.dtd">
<svg version="1.0" xmlns="http://www.w3.org/2000/svg"
 width="700.000000pt" height="700.000000pt" viewBox="0 0 700.000000 700.000000"
 preserveAspectRatio="xMidYMid meet">
<metadata>
Created by potrace 1.11, written by Peter Selinger 2001-2013
</metadata>
<g transform="translate(0.000000,700.000000) scale(0.100000,-0.100000)"
fill="#000000" stroke="none">
<path d="M3118 6995 c-2 -2 -32 -5 -68 -8 -36 -2 -64 -8 -63 -13 1 -5 24 -76
51 -159 53 -157 92 -299 118 -425 8 -41 17 -83 20 -93 5 -15 2 -16 -20 -7 -36
13 -181 97 -241 139 -143 100 -300 248 -407 384 -34 42 -65 77 -68 77 -30 0
-405 -125 -424 -141 -12 -10 77 -139 174 -254 268 -315 560 -527 940 -681
l105 -42 0 -214 c-1 -200 -10 -376 -20 -386 -8 -9 -155 37 -290 91 -453 177
-843 454 -1181 839 -51 58 -183 238 -227 310 -28 46 -47 66 -56 63 -18 -7
-257 -167 -291 -195 -14 -11 -40 -31 -57 -44 l-32 -23 62 -94 c102 -154 132
-193 275 -359 279 -326 644 -606 1057 -813 99 -50 300 -137 316 -137 5 0 17
-4 27 -9 19 -11 163 -59 259 -87 34 -9 60 -20 58 -24 -2 -4 -6 -20 -9 -36 -14
-77 -112 -378 -158 -486 -24 -56 -4 -58 -228 15 -256 82 -539 206 -745 327
-49 29 -104 60 -122 71 -51 29 -252 168 -323 223 -157 122 -231 187 -381 336
-123 123 -199 204 -239 256 -8 10 -31 39 -50 64 -19 25 -37 47 -40 50 -11 10
-89 118 -140 193 -29 42 -56 77 -60 77 -18 0 -186 -213 -285 -362 l-58 -88 58
-77 c163 -218 405 -484 580 -638 323 -283 594 -471 940 -651 239 -123 523
-241 735 -304 41 -13 79 -26 84 -31 13 -12 -128 -232 -258 -399 -143 -186
-362 -419 -521 -555 -38 -33 -79 -68 -90 -78 -98 -89 -396 -292 -575 -393
-276 -156 -627 -300 -911 -374 -24 -6 -61 -16 -82 -21 l-38 -10 27 -47 c62
-107 194 -297 290 -418 6 -8 17 -14 25 -14 27 0 375 123 512 182 917 390 1670
1058 2153 1910 55 98 47 94 166 78 115 -15 146 -19 253 -27 109 -9 515 -10
689 -3 l109 5 28 -100 c35 -123 92 -285 135 -385 24 -54 29 -77 21 -81 -7 -4
-54 -16 -104 -28 -114 -26 -308 -87 -428 -134 -82 -32 -119 -48 -270 -117
-192 -88 -477 -273 -690 -449 -101 -83 -338 -318 -404 -401 -25 -30 -50 -59
-56 -65 -18 -17 -119 -155 -182 -250 -217 -325 -366 -664 -463 -1050 -26 -104
-34 -152 -26 -156 47 -26 442 -147 450 -138 2 2 6 22 9 44 15 103 109 422 159
535 11 25 26 61 35 80 107 245 275 508 463 725 417 480 1010 824 1629 945 57
11 106 22 110 24 12 8 25 -7 101 -114 40 -58 76 -107 79 -110 3 -3 35 -41 71
-85 61 -76 121 -143 183 -206 15 -15 24 -29 20 -32 -5 -2 -50 -5 -101 -6 -52
-1 -104 -4 -115 -7 -12 -2 -60 -9 -107 -15 -381 -50 -779 -220 -1105 -473 -79
-61 -303 -276 -345 -331 -8 -11 -38 -49 -65 -85 -149 -192 -278 -438 -358
-685 -31 -92 -78 -297 -71 -304 9 -9 444 -9 450 0 3 6 16 49 29 97 88 327 290
650 553 882 41 36 80 70 87 77 41 38 228 153 338 208 180 89 395 156 577 179
25 3 61 8 80 11 88 13 435 5 461 -11 3 -1 28 -6 55 -9 73 -10 196 -42 309 -82
55 -19 105 -35 111 -36 14 -2 103 112 200 254 l72 107 -138 82 c-267 159 -546
392 -722 602 -23 28 -59 69 -78 91 l-35 40 130 -6 c72 -4 139 -9 150 -11 11
-2 45 -7 75 -11 84 -10 86 -11 240 -41 135 -27 370 -103 524 -169 60 -25 112
-43 117 -38 10 11 70 176 104 288 15 50 31 103 36 119 5 16 9 32 9 36 0 4 -33
29 -72 55 -102 68 -211 157 -293 239 -84 85 -205 230 -205 245 0 6 -4 11 -8
11 -5 0 -14 10 -21 23 -6 12 -20 36 -30 52 -44 67 -119 215 -150 292 -39 97
-92 274 -85 284 2 4 48 29 102 55 198 96 454 252 679 414 58 42 62 47 57 75
-11 52 -110 347 -139 410 -15 33 -31 70 -36 83 -9 22 -11 21 -86 -41 -131
-107 -329 -244 -473 -327 -41 -23 -90 -52 -108 -63 l-34 -20 7 59 c23 184 101
430 191 600 43 82 176 285 198 303 13 11 8 23 -45 94 -90 124 -229 297 -238
297 -7 0 -60 -41 -91 -70 -16 -15 -127 -99 -215 -162 -77 -55 -239 -150 -351
-206 -145 -73 -374 -163 -374 -148 0 15 100 249 144 336 90 181 220 384 331
519 24 29 81 97 107 127 18 21 17 21 -94 101 -62 44 -149 103 -192 130 l-79
51 -66 -47 c-144 -103 -325 -195 -491 -249 -97 -32 -209 -63 -245 -67 -11 -2
-38 -6 -60 -10 -128 -21 -368 -30 -496 -18 l-47 5 -6 46 c-4 26 -9 67 -13 92
-7 63 -62 338 -74 377 -5 17 -12 43 -15 57 -5 30 -70 253 -83 288 -5 14 -15
27 -23 30 -14 5 -435 8 -440 3z m1572 -1259 c0 -1 -20 -46 -45 -99 -58 -124
-117 -282 -160 -426 -18 -62 -36 -115 -38 -117 -2 -2 -26 -7 -53 -10 -27 -3
-62 -8 -79 -11 -42 -7 -462 -12 -507 -6 -36 5 -38 7 -32 37 6 37 12 140 19
369 5 170 8 192 26 181 13 -8 319 -8 399 0 105 11 299 45 375 65 71 19 95 24
95 17z m795 -826 c-12 -19 -53 -197 -61 -265 -2 -16 -6 -41 -9 -54 -8 -31 -15
-123 -19 -242 -2 -53 -6 -101 -10 -107 -10 -16 -376 -130 -471 -147 -16 -2
-45 -9 -64 -15 -40 -11 -44 -9 -48 28 -4 51 -4 337 1 382 3 25 8 70 11 100 3
30 7 64 9 75 2 14 17 24 52 34 160 46 365 118 474 166 130 56 145 61 135 45z
m-1455 -315 c129 2 257 5 283 8 l48 5 -7 -80 c-9 -104 -11 -369 -4 -454 3 -36
3 -67 0 -69 -24 -15 -489 -23 -630 -11 -97 8 -205 18 -207 20 -1 1 11 40 28
87 34 91 96 296 129 425 l21 80 52 -7 c29 -4 158 -6 287 -4z m1460 -987 c47
-164 167 -429 250 -553 14 -22 36 -57 49 -77 l22 -38 -38 5 c-21 3 -58 8 -83
11 -25 4 -166 7 -315 9 l-270 2 -47 104 c-73 162 -176 455 -164 467 4 3 146
38 188 46 40 7 138 35 253 70 61 19 115 35 121 35 5 1 21 -36 34 -81z"/>
</g>
</svg>
